<svg xmlns="http://www.w3.org/2000/svg" viewBox="0 0 500 500" width="500" height="500" class="illustration"><g id="Layer_10" data-name="Layer 10"><path d="M287.4,338.58a230.65,230.65,0,0,0-47.73-32.85A99.82,99.82,0,0,1,259.86,121a100,100,0,0,0-28.28-3.44c-53.41,1.12-96.82,44.76-97.66,98.17a99.52,99.52,0,0,0,31.23,74.12h0L187,324.53l4.08,36.09,111.83-8Z" fill="#3fe2fd"></path><path d="M220.56,361.6S200.31,412.36,250,432.79H216.48l-24.71-27.91-2.38-44.26Z" fill="#3fe2fd"></path></g><g id="Layer_3" data-name="Layer 3"><path d="M309.92,366.63H189.31a7,7,0,0,1-7-7V322.5a116.52,116.52,0,1,1,134.61,0v37.13A7,7,0,0,1,309.92,366.63Zm-113.61-14H302.92V318.81a7,7,0,0,1,3.14-5.84,102.52,102.52,0,1,0-112.89,0,7,7,0,0,1,3.14,5.84Z" fill="#251ac7"></path><path d="M258.82,441.24h-18.4a58.17,58.17,0,0,1-58.11-58.1V359.63a7,7,0,0,1,7-7H309.92a7,7,0,0,1,7,7v23.51A58.17,58.17,0,0,1,258.82,441.24Zm-62.51-74.61v16.51a44.15,44.15,0,0,0,44.11,44.1h18.4a44.15,44.15,0,0,0,44.1-44.1V366.63Z" fill="#251ac7"></path><path d="M227.26,366.63a7,7,0,0,1-6.89-5.82L194.73,210.56A7,7,0,0,1,207.12,205l38.43,48.38,45.38-48.8a7,7,0,0,1,12,5.95L277.32,360.81a7,7,0,0,1-13.8-2.36l21.69-127.13-35,37.58a7.09,7.09,0,0,1-5.39,2.23,7,7,0,0,1-5.21-2.64L213.12,235.1l21,123.35a7,7,0,0,1-5.72,8.08A6.83,6.83,0,0,1,227.26,366.63Z" fill="#251ac7"></path><path d="M248.85,462a7,7,0,0,1-7-7V434.24a7,7,0,0,1,14,0V455A7,7,0,0,1,248.85,462Z" fill="#251ac7"></path><path d="M309.49,395.53h-76.6a7,7,0,0,1,0-14h76.6a7,7,0,0,1,0,14Z" fill="#251ac7"></path><path d="M249.62,73a7,7,0,0,1-7-7V30.27a7,7,0,1,1,14,0V66A7,7,0,0,1,249.62,73Z" fill="#251ac7"></path><path d="M442.55,247.05H406.78a7,7,0,0,1,0-14h35.77a7,7,0,0,1,0,14Z" fill="#251ac7"></path><path d="M93.22,247.05H57.46a7,7,0,1,1,0-14H93.22a7,7,0,0,1,0,14Z" fill="#251ac7"></path><path d="M126.57,124a7,7,0,0,1-4.95-2L96.33,96.66a7,7,0,0,1,9.9-9.9l25.29,25.29a7,7,0,0,1-5,12Z" fill="#251ac7"></path><path d="M372.66,124a7,7,0,0,1-5-12L393,86.76a7,7,0,0,1,9.9,9.9L377.61,122A6.94,6.94,0,0,1,372.66,124Z" fill="#251ac7"></path></g></svg>