<svg xmlns="http://www.w3.org/2000/svg" viewBox="0 0 500 500" width="500" height="500" class="illustration"><g id="Layer_10" data-name="Layer 10"><path d="M247.78,65.32s-26.08,18.84-17,47,20.51,45.79,13.36,63.92-44.56-.95-35.16,50.09V332.23s-19.12,4.1-23.94-20.37-25.34-142.7,28.09-142.26h11.45L228.38,150s-14.2-16.22-15.93-37.68S224.24,64.13,247.78,65.32Z" fill="#3fe2fd"></path><path d="M89.89,104.88s-26.08,16.05-17,40,20.52,39,13.36,54.46-44.55-.81-35.16,42.68v90.22S32,335.76,27.13,314.91,1.79,193.35,55.22,193.72H66.67L70.49,177S56.28,163.2,54.56,144.91,66.35,103.87,89.89,104.88Z" fill="#3fe2fd"></path><path d="M413.76,104.88s-26.08,16.05-17,40,20.51,39,13.35,54.46-44.55-.81-35.15,42.68v90.22s-19.12,3.49-23.95-17.36-25.34-121.56,28.1-121.19h11.44l3.82-16.7s-14.21-13.82-15.93-32.11S390.22,103.87,413.76,104.88Z" fill="#3fe2fd"></path><path d="M254.9,304.09h0a11.7,11.7,0,0,1,11.7,11.7V440.53a0,0,0,0,1,0,0h-23.4a0,0,0,0,1,0,0V315.79A11.7,11.7,0,0,1,254.9,304.09Z" fill="#3fe2fd"></path><path d="M420.48,304.09h0a11.7,11.7,0,0,1,11.7,11.7V440.53a0,0,0,0,1,0,0h-23.4a0,0,0,0,1,0,0V315.79a11.7,11.7,0,0,1,11.7-11.7Z" fill="#3fe2fd"></path><path d="M94.5,304.09h0a11.7,11.7,0,0,1,11.7,11.7V440.53a0,0,0,0,1,0,0H82.8a0,0,0,0,1,0,0V315.79A11.7,11.7,0,0,1,94.5,304.09Z" fill="#3fe2fd"></path></g><g id="Layer_3" data-name="Layer 3"><path d="M211.56,333.55a7,7,0,0,1-7-7V224.81a7,7,0,0,1,14,0V326.55A7,7,0,0,1,211.56,333.55Z" fill="#251ac7"></path><path d="M287.81,333.55a7,7,0,0,1-7-7V224.81a7,7,0,0,1,14,0V326.55A7,7,0,0,1,287.81,333.55Z" fill="#251ac7"></path><path d="M249.61,442.83a7,7,0,0,1-7-7V314.54a7,7,0,0,1,14,0V435.83A7,7,0,0,1,249.61,442.83Z" fill="#251ac7"></path><path d="M274,442.83H225.19a20.65,20.65,0,0,1-20.63-20.63V333.31a29.26,29.26,0,0,1-25.47-27.71l-4.37-95.24a46.9,46.9,0,0,1,46.86-49.07h2.19v-9.22c-4.94-5.66-16.64-20.44-16.64-33.43V98.25a42.49,42.49,0,1,1,85,0v20.39c0,13-11.7,27.77-16.64,33.43v9.22a49.93,49.93,0,0,1,49.8,52.63l-5,91.92a29.32,29.32,0,0,1-25.63,27.49V422.2A20.65,20.65,0,0,1,274,442.83ZM221.58,175.29a32.92,32.92,0,0,0-32.88,34.43L193.08,305a15.27,15.27,0,0,0,15.28,14.59h3.2a7,7,0,0,1,7,7V422.2a6.64,6.64,0,0,0,6.63,6.63H274a6.64,6.64,0,0,0,6.63-6.63V326.55a7,7,0,0,1,7-7H291a15.3,15.3,0,0,0,15.28-14.47l5-91.91a35.94,35.94,0,0,0-35.88-37.88h-3.92a10,10,0,0,1-10-10V150.64c0-.15,0-.3,0-.45l0-.3a7,7,0,0,1,1.91-5.26c5.71-6,14.78-18.46,14.78-26V98.25a28.49,28.49,0,1,0-57,0v20.39c0,7.53,9.07,19.94,14.79,26a7,7,0,0,1,1.9,5.26l0,.3c0,.15,0,.3,0,.45v14.49a10.14,10.14,0,0,1-10.12,10.16Z" fill="#251ac7"></path><path d="M374,335a7,7,0,0,1-7-7V258.55a7,7,0,0,1,14,0V328A7,7,0,0,1,374,335Z" fill="#251ac7"></path><path d="M450.2,335a7,7,0,0,1-7-7V258.55a7,7,0,0,1,14,0V328A7,7,0,0,1,450.2,335Z" fill="#251ac7"></path><path d="M412,444.24a7,7,0,0,1-7-7V316a7,7,0,0,1,14,0V437.24A7,7,0,0,1,412,444.24Z" fill="#251ac7"></path><path d="M436.43,444.24H387.58A20.65,20.65,0,0,1,367,423.61V334.72a29.26,29.26,0,0,1-25.46-27.62l-4.37-62.84a.86.86,0,0,1,0-.16A46.9,46.9,0,0,1,384,195h2.2v-9.22c-4.94-5.65-16.65-20.44-16.65-33.44V132a42.49,42.49,0,0,1,85,0v20.38c0,13-11.71,27.79-16.65,33.44V195a49.93,49.93,0,0,1,49.8,52.63c0,.07,0,.14,0,.21l-5,59.48a29.3,29.3,0,0,1-25.62,27.39v88.87A20.65,20.65,0,0,1,436.43,444.24ZM351.09,243.37l4.37,62.83a1,1,0,0,1,0,.17A15.28,15.28,0,0,0,370.75,321H374a7,7,0,0,1,7,7v95.65a6.64,6.64,0,0,0,6.63,6.63h48.85a6.64,6.64,0,0,0,6.63-6.63V328a7,7,0,0,1,7-7h3.37a15.3,15.3,0,0,0,15.28-14.47c0-.07,0-.14,0-.2l5-59.48A35.93,35.93,0,0,0,437.79,209h-3.92a10,10,0,0,1-10-10V184.38c0-.15,0-.3,0-.44l0-.33a7,7,0,0,1,1.91-5.24c5.71-6.05,14.79-18.46,14.79-26V132a28.49,28.49,0,0,0-57,0v20.38c0,7.54,9.07,19.95,14.79,26a7,7,0,0,1,1.9,5.24l0,.33c0,.14,0,.29,0,.44v14.49A10.15,10.15,0,0,1,390,209H384a32.91,32.91,0,0,0-32.88,34.34Zm129.57,3.92h0Z" fill="#251ac7"></path><path d="M49.16,335a7,7,0,0,1-7-7V258.55a7,7,0,0,1,14,0V328A7,7,0,0,1,49.16,335Z" fill="#251ac7"></path><path d="M125.42,335a7,7,0,0,1-7-7V258.55a7,7,0,1,1,14,0V328A7,7,0,0,1,125.42,335Z" fill="#251ac7"></path><path d="M87.22,444.24a7,7,0,0,1-7-7V316a7,7,0,0,1,14,0V437.24A7,7,0,0,1,87.22,444.24Z" fill="#251ac7"></path><path d="M111.65,444.24H62.79a20.66,20.66,0,0,1-20.63-20.63V334.72A29.25,29.25,0,0,1,16.71,307.1l-4.38-62.84s0-.11,0-.16A46.91,46.91,0,0,1,59.19,195h2.19v-9.22c-4.94-5.65-16.65-20.44-16.65-33.44V132a42.49,42.49,0,0,1,85,0v20.38c0,13-11.71,27.79-16.65,33.44V195a49.93,49.93,0,0,1,49.81,52.63,1.49,1.49,0,0,1,0,.21l-4.95,59.48a29.32,29.32,0,0,1-25.62,27.39v88.87A20.65,20.65,0,0,1,111.65,444.24ZM26.3,243.37l4.38,62.83a1,1,0,0,0,0,.17A15.26,15.26,0,0,0,46,321h3.19a7,7,0,0,1,7,7v95.65a6.64,6.64,0,0,0,6.63,6.63h48.86a6.64,6.64,0,0,0,6.63-6.63V328a7,7,0,0,1,7-7h3.37a15.3,15.3,0,0,0,15.27-14.47c0-.07,0-.14,0-.2l4.95-59.48A35.93,35.93,0,0,0,113,209h-3.91a10,10,0,0,1-10-10V184.38c0-.15,0-.3,0-.44l0-.33a7,7,0,0,1,1.9-5.24c5.72-6.05,14.79-18.46,14.79-26V132a28.49,28.49,0,0,0-57,0v20.38c0,7.54,9.08,19.95,14.79,26a7,7,0,0,1,1.91,5.24l0,.33c0,.14,0,.29,0,.44v14.49A10.14,10.14,0,0,1,65.26,209H59.19A32.93,32.93,0,0,0,26.3,243.37Zm129.58,3.92h0Z" fill="#251ac7"></path></g></svg>